<?xml version="1.0" encoding="UTF-8"?>
<svg xmlns="http://www.w3.org/2000/svg" id="Layer_1" data-name="Layer 1" viewBox="0 0 24 24">
  <path d="m21.091,4.617L13.885.5c-1.162-.662-2.607-.662-3.77,0L2.909,4.618c-1.181.675-1.914,1.938-1.914,3.298v8.168c0,1.359.733,2.623,1.914,3.298h0s7.206,4.118,7.206,4.118c.575.327,1.219.492,1.863.496.007,0,.014.004.021.004s.014-.004.021-.004c.644-.004,1.289-.168,1.863-.496l7.206-4.118c1.181-.675,1.914-1.938,1.914-3.298V7.916c0-1.359-.733-2.623-1.914-3.299Zm-17.686.869L10.611,1.369c.855-.49,1.922-.49,2.777,0l7.206,4.116c.312.178.562.426.779.699l-9.396,5.24L2.745,6.03c.192-.209.407-.399.66-.544Zm0,13.028c-.87-.498-1.41-1.43-1.41-2.431V7.916c0-.363.093-.708.225-1.035l9.28,5.422v10.631c-.308-.056-.611-.144-.889-.303l-7.206-4.116Zm18.6-2.431c0,1.001-.54,1.933-1.41,2.43l-7.206,4.117c-.278.159-.581.248-.889.303v-10.657l9.355-5.218c.089.275.15.56.15.856v8.168Z"/>
</svg>
